<?xml version="1.0" ?><svg id="Layer_1" style="enable-background:new 0 0 96 96;" version="1.1" viewBox="0 0 96 96" xml:space="preserve" xmlns="http://www.w3.org/2000/svg" xmlns:xlink="http://www.w3.org/1999/xlink"><style type="text/css">
	.st0{fill:#FFFFFF;}
</style><g><path d="M38.6,49.3c0,2.1,1,3.1,2.3,3.1c0.7,0,1.1-0.3,2.1-1V47c-1-0.5-1.5-0.7-2.1-0.7C39.8,46.3,38.6,47.2,38.6,49.3z"/><path d="M14,51.5c0,0.7,0.4,1,1.2,1c0.8,0,1.8-0.3,1.8-0.9v-1.9C15,50,14,50.7,14,51.5z"/><path d="M61.7,52.4c1.4,0,2.1-1.2,2.1-3.1c0-1.9-0.7-3.1-2.1-3.1c-1.4,0-2.1,1.2-2.1,3.1C59.6,51.2,60.3,52.4,61.7,52.4z"/><path d="M79.9,52.4c0.7,0,1.1-0.3,2.1-1V47c-1-0.5-1.5-0.7-2.1-0.7c-1.1,0-2.1,1-2.1,3C77.8,51.4,78.6,52.4,79.9,52.4z"/><path d="M51.1,84.2c-0.9,0.3-2,0.4-3.1,0.4c-1.1,0-2.2-0.1-3.1-0.4L3,72v6.6c0,1.3,1.1,2.7,2.4,3.1l40.3,10.7   c1.3,0.3,3.4,0.3,4.7,0l40.3-10.7c1.3-0.3,2.4-1.7,2.4-3.1V72L51.1,84.2z"/><path d="M50,80.3l43-12.5V20H3v47.8l43,12.5C47,80.6,49,80.6,50,80.3z M72,55h-3V44h3V55z M78.9,43.7c1.3,0,2.3,0.4,3.1,1.1   l0.1-1.7V39h3v16h-2.8L82,54h-0.1c-0.8,0-2,1.2-3.1,1.2c-2.9,0-4.7-2.2-4.7-5.8C74.1,45.9,76.4,43.7,78.9,43.7z M70.7,39   c1.2,0,2,0.7,2,1.7c0,1-0.8,1.7-2,1.7c-1.1,0-2-0.7-2-1.7C68.7,39.7,69.5,39,70.7,39z M61.7,43.7c2.9,0,5.6,2.1,5.6,5.7   c0,3.6-2.7,5.7-5.6,5.7c-2.9,0-5.6-2.1-5.6-5.7C56.1,45.7,58.8,43.7,61.7,43.7z M48,44h3.2l0.2,2h0.1c0.8-2,2.1-2.2,3.3-2.2   c0.7,0,1,0,1.4,0.2l-0.6,2.7c-0.4-0.1-0.7-0.2-1.2-0.2c-0.9,0-2.4,0.5-2.4,2V55h-4V44z M21,55h-2.9l-0.2-1h-0.1c-1,0-2,1.2-3.4,1.2   c-2.1,0-3.4-1.5-3.4-3.4c0-2.3,1.9-3.6,6.5-4c-0.1-1-0.6-1.6-1.8-1.6c-1,0-1.9,0.4-3,1l-1.2-2.1c1.5-0.8,3.2-1.4,5-1.4   c3,0,4.6,1.6,4.6,4.9V55z M34,55h-4v-6.6c0-1.6-0.2-2-1.1-2c-0.9,0-1.9,0.4-1.9,1V55h-4V44h2.9l0.2,1h0.1c1-1,2.4-1.5,3.9-1.5   c2.5,0,3.8,1.8,3.8,4.5V55z M43,54L43,54c-0.9,0-2,1.2-3.2,1.2c-2.9,0-4.7-2.2-4.7-5.8c0-3.5,2.4-5.7,4.8-5.7c1.3,0,2.2,0.4,3,1.1   l0-1.7V39h3v16h-2.7L43,54z"/><path d="M93,16V5.4C93,4.1,91.9,3,90.6,3H50.4c-1.3,0-3.6,0-4.9,0H5.4C4.1,3,3,4.1,3,5.4V16H93z"/></g></svg>