<?xml version="1.0" ?><svg id="Layer_1" style="enable-background:new 0 0 96 96;" version="1.1" viewBox="0 0 96 96" xml:space="preserve" xmlns="http://www.w3.org/2000/svg" xmlns:xlink="http://www.w3.org/1999/xlink"><style type="text/css">
	.st0{fill:#FFFFFF;}
</style><g><path d="M93,16V5.4C93,4.1,91.9,3,90.6,3H50.4c-1.3,0-3.6,0-4.9,0H5.4C4.1,3,3,4.1,3,5.4V16H93z"/><path d="M50,80.3l43-12.5V20H3v47.8l43,12.5C47,80.6,49,80.6,50,80.3z M58,46h6v-7h4v7h6v4h-6v6h-4v-6h-6V46z M32.5,60   C26.8,60,22,55.9,22,48.1C22,40.5,27,36,32.7,36c2.9,0,5.3,1.4,6.8,3l-2.7,3.3c-1.1-1.1-2.4-1.8-4-1.8c-3.1,0-5.5,2.8-5.5,7.5   c0,4.8,2.2,7.5,5.5,7.5c1.8,0,3.3-1,4.4-2.2l2.7,3.3C38,58.8,35.5,60,32.5,60z M41,46h6v-7h4v7h6v4h-6v6h-4v-6h-6V46z"/><path d="M51.1,84.2c-0.9,0.3-2,0.4-3.1,0.4c-1.1,0-2.2-0.1-3.1-0.4L3,72v6.6c0,1.3,1.1,2.7,2.4,3.1l40.3,10.7   c1.3,0.3,3.4,0.3,4.7,0l40.3-10.7c1.3-0.3,2.4-1.7,2.4-3.1V72L51.1,84.2z"/></g></svg>