<?xml version="1.0" ?><svg id="Layer_1" style="enable-background:new 0 0 96 96;" version="1.1" viewBox="0 0 96 96" xml:space="preserve" xmlns="http://www.w3.org/2000/svg" xmlns:xlink="http://www.w3.org/1999/xlink"><style type="text/css">
	.st0{fill:#FFFFFF;}
</style><g><path d="M50,80.3l43-12.5V20H3v47.8l43,12.5C47,80.6,49,80.6,50,80.3z M64,36h17v4h-6v20h-5V40h-6V36z M47,36h15v4H52v5h8v5h-8v5   h10v5H47V36z M17.6,60c-1.8,0-3.1-1.4-3.1-3.3c0-1.9,1.3-3.4,3.1-3.4c1.8,0,3.1,1.4,3.1,3.4C20.8,58.6,19.5,60,17.6,60z M43,60   h-5.6l-6-11.8L29.1,43h-0.1c0.2,2,1.1,5.4,1.1,8.2V60h-5V36h5l6,11.8l2.3,5.2h0.1c-0.2-3-0.4-5.9-0.4-8.7V36h5V60z"/><path d="M51.1,84.2c-0.9,0.3-2,0.4-3.1,0.4c-1.1,0-2.2-0.1-3.1-0.4L3,72v6.6c0,1.3,1.1,2.7,2.4,3.1l40.3,10.7   c1.3,0.3,3.4,0.3,4.7,0l40.3-10.7c1.3-0.3,2.4-1.7,2.4-3.1V72L51.1,84.2z"/><path d="M93,16V5.4C93,4.1,91.9,3,90.6,3H50.4c-1.3,0-3.6,0-4.9,0H5.4C4.1,3,3,4.1,3,5.4V16H93z"/></g></svg>