<?xml version="1.0" ?><svg id="Layer_1" style="enable-background:new 0 0 96 96;" version="1.1" viewBox="0 0 96 96" xml:space="preserve" xmlns="http://www.w3.org/2000/svg" xmlns:xlink="http://www.w3.org/1999/xlink"><style type="text/css">
	.st0{fill:#FFFFFF;}
</style><g><path d="M50,80.3l43-12.5V20H3v47.8l43,12.5C47,80.6,49,80.6,50,80.3z M61.6,36c2.4,0,5,1.1,6.8,3.1L66,42.4   c-1.4-1.2-2.7-1.8-4.4-1.8c-1.6,0-2.7,0.8-2.7,2.1c0,1.4,1.4,1.9,3.2,2.7l2.7,1.2c2.5,1.1,4.2,3,4.2,6.3c0,3.8-2.9,7.2-7.9,7.2   c-2.7,0-5.6-1.1-7.8-3.3l2.7-3.6c1.5,1.4,3.5,2.4,5.2,2.4c2,0,2.9-0.9,2.9-2.2c0-1.5-1.2-1.9-3-2.8l-2.7-1.3   c-2.2-1-4.2-2.9-4.2-6.3C54.1,39.1,57.2,36,61.6,36z M32,60h-4V45h4V60z M30.2,43.4c-1.1,0-1.8-0.8-1.8-1.9c0-1.1,0.8-1.8,1.8-1.8   c1.1,0,1.8,0.7,1.8,1.8C32.1,42.6,31.3,43.4,30.2,43.4z M34.1,47.9c0-7.6,3.9-11.9,9.7-11.9c5.8,0,9.7,4.4,9.7,11.9   c0,7.6-3.9,12.1-9.7,12.1C38,60,34.1,55.5,34.1,47.9z"/><path d="M43.8,40.5c-2.9,0-4.7,2.8-4.7,7.4c0,4.7,1.8,7.6,4.7,7.6s4.7-2.9,4.7-7.6C48.5,43.3,46.7,40.5,43.8,40.5z"/><path d="M93,16V5.4C93,4.1,91.9,3,90.6,3H50.4c-1.3,0-3.6,0-4.9,0H5.4C4.1,3,3,4.1,3,5.4V16H93z"/><path d="M51.1,84.2c-0.9,0.3-2,0.4-3.1,0.4c-1.1,0-2.2-0.1-3.1-0.4L3,72v6.6c0,1.3,1.1,2.7,2.4,3.1l40.3,10.7   c1.3,0.3,3.4,0.3,4.7,0l40.3-10.7c1.3-0.3,2.4-1.7,2.4-3.1V72L51.1,84.2z"/></g></svg>