<?xml version="1.0" ?><svg id="Layer_1" style="enable-background:new 0 0 96 96;" version="1.1" viewBox="0 0 96 96" xml:space="preserve" xmlns="http://www.w3.org/2000/svg" xmlns:xlink="http://www.w3.org/1999/xlink"><style type="text/css">
	.st0{fill:#FFFFFF;}
</style><g><path d="M37.6,51c0,0.8,0.5,1.2,1.4,1.2c0.9,0,2-0.4,2-1.1v-2.3C39,49.2,37.6,50,37.6,51z"/><path d="M64.9,52.2c0.9,0,1.1-0.4,2.1-1.1v-2.3c-3,0.4-3.6,1.2-3.6,2.1C63.4,51.8,64,52.2,64.9,52.2z"/><path d="M93,16V5.4C93,4.1,91.9,3,90.6,3H50.4c-1.3,0-3.6,0-4.9,0H5.4C4.1,3,3,4.1,3,5.4V16H93z"/><path d="M51.1,84.2c-0.9,0.3-2,0.4-3.1,0.4c-1.1,0-2.2-0.1-3.1-0.4L3,72v6.6c0,1.3,1.1,2.7,2.4,3.1l40.3,10.7   c1.3,0.3,3.4,0.3,4.7,0l40.3-10.7c1.3-0.3,2.4-1.7,2.4-3.1V72L51.1,84.2z"/><path d="M50,80.3l43-12.5V20H3v47.8l43,12.5C47,80.6,49,80.6,50,80.3z M65,44.7c-1.1,0-2.2,0.4-3.5,1.2l-1.4-2.5   c1.7-1,3.5-1.7,5.6-1.7c3.4,0,5.2,1.9,5.2,5.9V55h-3.2l-0.3-1h-0.1c-1.1,1-2.3,1.4-3.8,1.4c-2.4,0-3.9-1.8-3.9-4   c0-2.7,2.2-4.3,7.4-4.8C67,45.4,66.5,44.7,65,44.7z M50.3,42l1.7,6.1c0.3,1.3,0.7,2.9,1,3.9h0.1c0.3-1,0.7-2.7,1-3.9l1.7-6.1h3.7   l-4.3,13h-4.5l-4.4-13H50.3z M32,54.8c0,2.8-1.1,5.2-4.7,5.2c-1.1,0-1.8-0.2-2.3-0.4l0.7-2.8c0.3,0.1,0.6,0.2,1,0.2   c1,0,1.3-0.7,1.3-2.1V42h4V54.8z M30.1,40c-1.3,0-2.3-0.8-2.3-2c0-1.2,1-2,2.3-2c1.3,0,2.3,0.8,2.3,2C32.3,39.2,31.4,40,30.1,40z    M45,55h-2.9l-0.3-1h-0.1c-1.1,1-2.3,1.4-3.8,1.4c-2.4,0-3.9-1.8-3.9-4c0-2.7,2.2-4.3,7.4-4.8c-0.1-1.2-0.6-1.9-2.1-1.9   c-1.1,0-2.2,0.4-3.5,1.2l-1.4-2.5c1.7-1,3.4-1.7,5.5-1.7c3.4,0,5.1,1.9,5.1,5.9V55z"/></g></svg>