<?xml version="1.0" ?><svg id="Layer_1" style="enable-background:new 0 0 96 96;" version="1.1" viewBox="0 0 96 96" xml:space="preserve" xmlns="http://www.w3.org/2000/svg" xmlns:xlink="http://www.w3.org/1999/xlink"><style type="text/css">
	.st0{fill:#FFFFFF;}
</style><g><path d="M50,80.3l43-12.5V20H3v47.8l43,12.5C47,80.6,49,80.6,50,80.3z M55.5,52.1c-2.1-0.8-4.7-2.3-4.7-5.3c0-3.3,2.7-5.6,6.8-5.6   c2.7,0,4.7,1.1,6.3,2.3l-2.4,3.2c-1.3-0.9-2.5-1.5-3.8-1.5c-1.4,0-2,0.5-2,1.4c0,1.2,1.6,1.6,3.5,2.3c2.3,0.8,4.8,2.1,4.8,5.4   c0,3.3-2.5,5.8-7.3,5.8c-2.3,0-5-1-6.8-2.5l2.4-3.3c1.6,1.2,3.1,1.9,4.6,1.9c1.6,0,2.3-0.6,2.3-1.5C59.1,53.3,57.3,52.8,55.5,52.1z    M37,52v8h-5V36h8c5.1,0,9.3,2.1,9.3,7.8c0,5.5-4.2,8.2-9.1,8.2H37z"/><path d="M39.7,40H37v7h2.8c2.9,0,4.3-1.2,4.3-3.7C44.1,40.8,42.6,40,39.7,40z"/><path d="M51.1,84.2c-0.9,0.3-2,0.4-3.1,0.4c-1.1,0-2.2-0.1-3.1-0.4L3,72v6.6c0,1.3,1.1,2.7,2.4,3.1l40.3,10.7   c1.3,0.3,3.4,0.3,4.7,0l40.3-10.7c1.3-0.3,2.4-1.7,2.4-3.1V72L51.1,84.2z"/><path d="M93,16V5.4C93,4.1,91.9,3,90.6,3H50.4c-1.3,0-3.6,0-4.9,0H5.4C4.1,3,3,4.1,3,5.4V16H93z"/></g></svg>