<?xml version="1.0" ?><!DOCTYPE svg  PUBLIC '-//W3C//DTD SVG 1.1//EN'  'http://www.w3.org/Graphics/SVG/1.1/DTD/svg11.dtd'><svg enable-background="new 0 0 128 128" id="Слой_1" version="1.1" viewBox="0 0 128 128" xml:space="preserve" xmlns="http://www.w3.org/2000/svg" xmlns:xlink="http://www.w3.org/1999/xlink"><g><path d="M114.3,108.2l10.4-59.7c1.8-10.5-4.9-20.6-15.3-22.9L27.4,7C14,3.9,1.6,15,3.1,28.7L12,107   c1.1,10.1,9.7,17.8,19.9,17.8h62.8C104.4,124.7,112.7,117.8,114.3,108.2z" fill="#E9EAD3"/></g><g><g><g><g><polyline fill="#C9ADA8" points="81.8,19.9 104.3,21.9 95.8,120.1 23.7,113.8 32.2,15.5 54.7,17.5     "/></g></g><g><g><path d="M95.8,121.5c0,0-0.1,0-0.1,0l-72.1-6.3c-0.7-0.1-1.3-0.7-1.2-1.5l8.5-98.3c0-0.4,0.2-0.7,0.5-0.9      c0.3-0.2,0.6-0.3,1-0.3l22.5,2c0.7,0.1,1.3,0.7,1.2,1.5c-0.1,0.7-0.7,1.3-1.5,1.2L33.4,17l-8.3,95.6l69.4,6.1l8.3-95.6      l-21.2-1.9c-0.7-0.1-1.3-0.7-1.2-1.5c0.1-0.7,0.7-1.3,1.5-1.2l22.5,2c0.7,0.1,1.3,0.7,1.2,1.5l-8.5,98.3c0,0.4-0.2,0.7-0.5,0.9      C96.4,121.4,96.1,121.5,95.8,121.5z" fill="#62345B"/></g></g></g><g opacity="0.2"><g><g><polygon fill="#62345B" points="29.5,114.3 54.1,116.5 96.1,116.5 102,48.4 103.5,21.8 81.8,19.9 79.1,19.6 55.7,19.6       34.8,19.6     "/></g></g></g><g><g><polyline fill="#F2F1F0" points="82.8,19.6 103.6,19.6 103.6,116.5 34.8,116.5 34.8,19.6 55.7,19.6    "/></g></g><g><g><path d="M103.6,117.8H34.8c-0.8,0-1.4-0.6-1.4-1.4V19.6c0-0.4,0.1-0.7,0.4-1c0.3-0.3,0.6-0.4,1-0.4l0,0l20.8,0     c0.8,0,1.4,0.6,1.4,1.4S56.4,21,55.7,21l0,0l-19.5,0v94.1h66.1V21l-19.5,0c-0.7,0-1.4-0.6-1.4-1.4s0.6-1.4,1.4-1.4l20.8,0     c0.4,0,0.7,0.1,1,0.4s0.4,0.6,0.4,1v96.8C105,117.2,104.4,117.8,103.6,117.8z" fill="#62345B"/></g></g><g><g><path d="M94.6,97H63.8c-0.8,0-1.4-0.6-1.4-1.4c0-0.7,0.6-1.4,1.4-1.4h30.8c0.8,0,1.4,0.6,1.4,1.4     C95.9,96.4,95.3,97,94.6,97z" fill="#62345B"/></g></g><g><g><path d="M75.6,105.2H63.8c-0.8,0-1.4-0.6-1.4-1.4s0.6-1.4,1.4-1.4h11.8c0.8,0,1.4,0.6,1.4,1.4     S76.3,105.2,75.6,105.2z" fill="#62345B"/></g></g><g><g><path d="M94.6,69.9H63.8c-0.8,0-1.4-0.6-1.4-1.4c0-0.7,0.6-1.4,1.4-1.4h30.8c0.8,0,1.4,0.6,1.4,1.4     C95.9,69.3,95.3,69.9,94.6,69.9z" fill="#62345B"/></g></g><g><g><path d="M75.6,78H63.8c-0.8,0-1.4-0.6-1.4-1.4c0-0.7,0.6-1.4,1.4-1.4h11.8c0.8,0,1.4,0.6,1.4,1.4     C76.9,77.4,76.3,78,75.6,78z" fill="#62345B"/></g></g><g><g><path d="M94.6,42.7H63.8c-0.8,0-1.4-0.6-1.4-1.4c0-0.7,0.6-1.4,1.4-1.4h30.8c0.8,0,1.4,0.6,1.4,1.4     C95.9,42.1,95.3,42.7,94.6,42.7z" fill="#62345B"/></g></g><g><g><path d="M75.6,50.9H63.8c-0.8,0-1.4-0.6-1.4-1.4c0-0.7,0.6-1.4,1.4-1.4h11.8c0.8,0,1.4,0.6,1.4,1.4     C76.9,50.3,76.3,50.9,75.6,50.9z" fill="#62345B"/></g></g><g><g><g><path d="M48.9,106.5L48.9,106.5c-3.7,0-6.8-3-6.8-6.8v0c0-3.7,3-6.8,6.8-6.8h0c3.7,0,6.8,3,6.8,6.8v0      C55.7,103.5,52.6,106.5,48.9,106.5z" fill="#FEE757"/></g></g><g><g><path d="M48.9,79.4L48.9,79.4c-3.7,0-6.8-3-6.8-6.8v0c0-3.7,3-6.8,6.8-6.8h0c3.7,0,6.8,3,6.8,6.8v0      C55.7,76.3,52.6,79.4,48.9,79.4z" fill="#92D3CB"/></g></g><g><g><path d="M48.9,52.2L48.9,52.2c-3.7,0-6.8-3-6.8-6.8v0c0-3.7,3-6.8,6.8-6.8h0c3.7,0,6.8,3,6.8,6.8v0      C55.7,49.2,52.6,52.2,48.9,52.2z" fill="#92D3CB"/></g></g></g><g><g><g><path d="M48.9,107.9c-4.5,0-8.1-3.7-8.1-8.1c0-4.5,3.7-8.1,8.1-8.1s8.1,3.7,8.1,8.1      C57,104.2,53.4,107.9,48.9,107.9z M48.9,94.3c-3,0-5.4,2.4-5.4,5.4c0,3,2.4,5.4,5.4,5.4s5.4-2.4,5.4-5.4      C54.3,96.8,51.9,94.3,48.9,94.3z" fill="#62345B"/></g></g><g><g><path d="M48.9,80.7c-4.5,0-8.1-3.7-8.1-8.1s3.7-8.1,8.1-8.1s8.1,3.7,8.1,8.1S53.4,80.7,48.9,80.7z M48.9,67.2      c-3,0-5.4,2.4-5.4,5.4c0,3,2.4,5.4,5.4,5.4s5.4-2.4,5.4-5.4C54.3,69.6,51.9,67.2,48.9,67.2z" fill="#62345B"/></g></g><g><g><path d="M48.9,53.6c-4.5,0-8.1-3.7-8.1-8.1s3.7-8.1,8.1-8.1s8.1,3.7,8.1,8.1S53.4,53.6,48.9,53.6z M48.9,40      c-3,0-5.4,2.4-5.4,5.4s2.4,5.4,5.4,5.4s5.4-2.4,5.4-5.4S51.9,40,48.9,40z" fill="#62345B"/></g></g></g><g><g><g><path d="M76.9,24l-18-1.6c-2.5-0.2-4.3-2.4-4.1-4.9l0,0c0.2-2.5,2.4-4.3,4.9-4.1l18,1.6c2.5,0.2,4.3,2.4,4.1,4.9      v0C81.6,22.4,79.4,24.2,76.9,24z" fill="#ADA2B5"/></g></g><g><g><path d="M77.3,25.4c-0.2,0-0.3,0-0.5,0l-18-1.6c-3.2-0.3-5.6-3.1-5.3-6.4c0.3-3.2,3.1-5.6,6.4-5.3l18,1.6      c3.2,0.3,5.6,3.1,5.3,6.4C82.9,23,80.3,25.4,77.3,25.4z M59.2,14.7c-1.6,0-3,1.3-3.2,2.9c-0.2,1.7,1.1,3.3,2.9,3.4l18,1.6      c1.7,0.1,3.3-1.2,3.4-2.9c0.2-1.7-1.1-3.3-2.9-3.4l-18-1.6C59.4,14.7,59.3,14.7,59.2,14.7z" fill="#62345B"/></g></g><g><g><path d="M73,15.9c0,0-0.1,0-0.1,0c-0.7-0.1-1.3-0.7-1.2-1.5l0.2-1.8c0.2-1.7-1.1-3.3-2.9-3.4      c-1.7-0.2-3.3,1.1-3.4,2.9l-0.2,1.8c-0.1,0.7-0.7,1.3-1.5,1.2c-0.7-0.1-1.3-0.7-1.2-1.5l0.2-1.8c0.3-3.2,3.1-5.6,6.4-5.3      c3.2,0.3,5.6,3.1,5.3,6.4l-0.2,1.8C74.3,15.4,73.7,15.9,73,15.9z" fill="#62345B"/></g></g></g></g></svg>