<?xml version="1.0" ?><svg enable-background="new 0 0 64 64" height="64px" id="Layer_1" version="1.1" viewBox="0 0 64 64" width="64px" xml:space="preserve" xmlns="http://www.w3.org/2000/svg" xmlns:xlink="http://www.w3.org/1999/xlink"><circle cx="32" cy="32" fill="#4F5D73" r="32"/><g opacity="0.2"><line fill="#231F20" x1="28" x2="19" y1="14" y2="54"/><path d="M19.001,55.5c-0.109,0-0.22-0.012-0.331-0.037c-0.809-0.182-1.316-0.984-1.134-1.793l9-40   c0.182-0.809,0.986-1.316,1.792-1.134c0.809,0.182,1.316,0.984,1.134,1.792l-9,40C20.307,55.026,19.687,55.5,19.001,55.5z" fill="#231F20"/></g><g opacity="0.2"><line fill="#231F20" x1="37" x2="45" y1="14" y2="54"/><path d="M44.998,55.5c-0.701,0-1.327-0.493-1.469-1.207l-8-40c-0.163-0.812,0.364-1.602,1.177-1.765   c0.812-0.165,1.602,0.364,1.765,1.177l8,40c0.163,0.812-0.364,1.603-1.177,1.765C45.195,55.491,45.096,55.5,44.998,55.5z" fill="#231F20"/></g><g opacity="0.2"><path d="M32,55.5c-0.829,0-1.5-0.671-1.5-1.5V37.375c0-0.829,0.671-1.5,1.5-1.5c0.829,0,1.5,0.671,1.5,1.5V54   C33.5,54.829,32.829,55.5,32,55.5z" fill="#231F20"/></g><line fill="#F5CF87" stroke="#E0995E" stroke-linecap="round" stroke-linejoin="round" stroke-miterlimit="10" stroke-width="3" x1="28" x2="19" y1="12" y2="52"/><line fill="#F5CF87" stroke="#E0995E" stroke-linecap="round" stroke-linejoin="round" stroke-miterlimit="10" stroke-width="3" x1="37" x2="45" y1="12" y2="52"/><line fill="none" stroke="#E0995E" stroke-linecap="round" stroke-linejoin="round" stroke-miterlimit="10" stroke-width="3" x1="32" x2="32" y1="35.375" y2="52"/><path d="M49,40.242C49,41.213,48.049,42,46.875,42h-29.75C15.951,42,15,41.213,15,40.242V21.758  C15,20.787,15.951,20,17.125,20h29.75C48.049,20,49,20.787,49,21.758V40.242z" fill="#231F20" opacity="0.2"/><path d="M49,38.242C49,39.213,48.049,40,46.875,40h-29.75C15.951,40,15,39.213,15,38.242V19.758  C15,18.787,15.951,18,17.125,18h29.75C48.049,18,49,18.787,49,19.758V38.242z" fill="#FFFFFF"/><g opacity="0.2"><path d="M41,21.5H23c-0.829,0-1.5-0.671-1.5-1.5s0.671-1.5,1.5-1.5h18c0.829,0,1.5,0.671,1.5,1.5   S41.829,21.5,41,21.5z" fill="#231F20"/></g><g opacity="0.2"><path d="M41,43.5H23c-0.829,0-1.5-0.671-1.5-1.5s0.671-1.5,1.5-1.5h18c0.829,0,1.5,0.671,1.5,1.5   S41.829,43.5,41,43.5z" fill="#231F20"/></g><line fill="none" stroke="#F5CF87" stroke-linecap="round" stroke-linejoin="round" stroke-miterlimit="10" stroke-width="3" x1="23" x2="41" y1="18.5" y2="18.5"/><line fill="none" stroke="#F5CF87" stroke-linecap="round" stroke-linejoin="round" stroke-miterlimit="10" stroke-width="3" x1="23" x2="41" y1="40.5" y2="40.5"/><path d="M19.5,36c0,0,11-18,11-10  s0,10,2,8s7-8,12-9" fill="none" stroke="#C75C5C" stroke-linecap="round" stroke-miterlimit="10" stroke-width="3"/></svg>