<?xml version="1.0" ?><svg id="Layer_1" style="enable-background:new 0 0 96 96;" version="1.1" viewBox="0 0 96 96" xml:space="preserve" xmlns="http://www.w3.org/2000/svg" xmlns:xlink="http://www.w3.org/1999/xlink"><style type="text/css">
	.st0{fill:#FFFFFF;}
</style><g><path d="M50,80.3l43-12.5V20H3v47.8l43,12.5C47,80.6,49,80.6,50,80.3z M73,41h3l0.9,2H77c1.1-1,2.4-1.9,4.1-1.9   c2.8,0,3.9,2.1,3.9,5.5V55h-4v-8c0-1.9-0.5-2.5-1.6-2.5c-0.9,0-1.4,0.5-2.4,1.3V55h-4V41z M65.6,41.2c3.2,0,6.2,2.5,6.2,7   c0,4.4-3,7-6.2,7c-3.2,0-6.2-2.5-6.2-7C59.4,43.7,62.4,41.2,65.6,41.2z M17.7,55.1c-1.1,0-2-0.5-2.9-1.4l0.2,2.1V60h-4V41h3.1   l0.3,2h0.1c1-1,2.3-1.7,3.6-1.7c3.1,0,5,2.6,5,6.7C23,52.5,20.4,55.1,17.7,55.1z M26.1,59.9c-0.8,0-1.3,0-1.8-0.1l0.7-3   c0.2,0.1,0.6,0.2,0.8,0.2c1.3,0,1.9-0.7,2.2-1.7l0.2-0.9L23.3,41h3.8l1.8,6c0.4,1.2,0.7,3,1,4H30c0.3-1,0.6-2.8,0.9-4l1.5-6H36   l-4.4,13.7C30.4,58,29.1,59.9,26.1,59.9z M42.3,55.1c-3.1,0-4.3-2.1-4.3-5.1v-5h-2v-3.3l2-0.1l0.4-3.5H42v3h3v4h-3v4.9   c0,1.5,0.4,2.1,1.4,2.1c0.4,0,0.8-0.1,1.1-0.3l0.6,2.9C44.4,54.9,43.5,55.1,42.3,55.1z M46,36h4v4.6V43c0.9-0.9,2.2-1.8,3.9-1.8   c2.8,0,4.1,2,4.1,5.4V55h-4v-8c0-1.9-0.5-2.5-1.6-2.5c-0.9,0-1.4,0.5-2.4,1.3V55h-4V36z"/><path d="M17.1,44.4c-0.8,0-1.1,0.4-2.1,1.2V51c0,0.6,1.3,0.9,1.9,0.9c1.3,0,2.2-1.2,2.2-3.9C19.1,45.6,18.6,44.4,17.1,44.4z"/><path d="M51.1,84.2c-0.9,0.3-2,0.4-3.1,0.4c-1.1,0-2.2-0.1-3.1-0.4L3,72v6.6c0,1.3,1.1,2.7,2.4,3.1l40.3,10.7   c1.3,0.3,3.4,0.3,4.7,0l40.3-10.7c1.3-0.3,2.4-1.7,2.4-3.1V72L51.1,84.2z"/><path d="M65.6,51.9c1.5,0,2.3-1.5,2.3-3.8c0-2.3-0.8-3.8-2.3-3.8c-1.6,0-2.3,1.5-2.3,3.8C63.3,50.5,64,51.9,65.6,51.9z"/><path d="M93,16V5.4C93,4.1,91.9,3,90.6,3H50.4c-1.3,0-3.6,0-4.9,0H5.4C4.1,3,3,4.1,3,5.4V16H93z"/></g></svg>