<?xml version="1.0" ?><svg id="Layer_1" style="enable-background:new 0 0 96 96;" version="1.1" viewBox="0 0 96 96" xml:space="preserve" xmlns="http://www.w3.org/2000/svg" xmlns:xlink="http://www.w3.org/1999/xlink"><style type="text/css">
	.st0{fill:#FFFFFF;}
</style><g><path d="M55.5,48.2c0-2.4-0.8-3.6-2.3-3.6c-0.8,0-1.3,0.4-2.3,1.2v5.5c1,0.7,1.5,0.9,2.1,0.9C54.4,52.1,55.5,50.9,55.5,48.2z"/><path d="M50,80.3l43-12.5V20H3v47.8l43,12.5C47,80.6,49,80.6,50,80.3z M63.9,42l1.8,5.5c0.4,1.2,0.7,2.5,1,3.5h0.1   c0.3-1,0.6-2.3,0.9-3.5l1.6-5.5H73l-4.5,13.2c-1.2,3.3-2.6,4.9-5.6,4.9c-0.8,0-1.3-0.2-1.8-0.3l0.7-3c0.2,0.1,0.6,0.1,0.9,0.1   c1.3,0,1.9-0.7,2.3-1.7l0.2-0.5l-5-12.7H63.9z M47,36h4v4.7l0,2.1c1-0.9,2.2-1.5,3.4-1.5c3.1,0,5,2.7,5,6.8c0,4.6-2.6,7.5-5.3,7.5   c-1.1,0-2.3-0.6-3.3-1.6h-0.1l-0.3,1H47V36z M31.6,45c-0.5-0.1-0.9-0.2-1.5-0.2c-1,0-2,0.7-3,2.5V55h-4V42h3.3l0.3,2h0.1   c1-1,2.5-2.7,3.9-2.7c0.8,0,1.2,0.1,1.6,0.3L31.6,45z M45,55h-3.3l-0.3-2h-0.1c-1.1,1-2.3,2.1-4.2,2.1c-2.9,0-4.1-2.2-4.1-5.6V41h4   v8c0,1.9,0.5,2.6,1.6,2.6c1,0,1.4-0.4,2.4-1.5v-9h4V55z"/><path d="M51.1,84.2c-0.9,0.3-2,0.4-3.1,0.4c-1.1,0-2.2-0.1-3.1-0.4L3,72v6.6c0,1.3,1.1,2.7,2.4,3.1l40.3,10.7   c1.3,0.3,3.4,0.3,4.7,0l40.3-10.7c1.3-0.3,2.4-1.7,2.4-3.1V72L51.1,84.2z"/><path d="M93,16V5.4C93,4.1,91.9,3,90.6,3H50.4c-1.3,0-3.6,0-4.9,0H5.4C4.1,3,3,4.1,3,5.4V16H93z"/></g></svg>