<?xml version="1.0" ?><svg id="Layer_1" style="enable-background:new 0 0 96 96;" version="1.1" viewBox="0 0 96 96" xml:space="preserve" xmlns="http://www.w3.org/2000/svg" xmlns:xlink="http://www.w3.org/1999/xlink"><style type="text/css">
	.st0{fill:#FFFFFF;}
</style><g><path d="M50,80.3l43-12.5V20H3v47.8l43,12.5C47,80.6,49,80.6,50,80.3z M49,50h3.4l0.5-4H50v-4h3.3l0.8-6h3l-0.7,6h3.7l0.8-6h3   l-0.7,6H66v4h-3.3l-0.5,4H65v3h-3.1l-0.8,7h-3l0.8-7h-3.7l-0.8,7h-3l0.8-7h-3V50z M30,48.1C30,40.5,35.1,36,41,36c3,0,5.4,1.4,7,3   l-2.8,3.3c-1.2-1.1-2.4-1.8-4.1-1.8c-3.2,0-5.7,2.8-5.7,7.5c0,4.8,2.2,7.5,5.7,7.5c1.9,0,3.4-1,4.6-2.2l2.8,3.3   c-1.9,2.2-4.5,3.4-7.6,3.4C34.9,60,30,55.9,30,48.1z"/><path d="M51.1,84.2c-0.9,0.3-2,0.4-3.1,0.4c-1.1,0-2.2-0.1-3.1-0.4L3,72v6.6c0,1.3,1.1,2.7,2.4,3.1l40.3,10.7   c1.3,0.3,3.4,0.3,4.7,0l40.3-10.7c1.3-0.3,2.4-1.7,2.4-3.1V72L51.1,84.2z"/><polygon points="59.7,46 56,46 55.5,50 59.2,50  "/><path d="M93,16V5.4C93,4.1,91.9,3,90.6,3H50.4c-1.3,0-3.6,0-4.9,0H5.4C4.1,3,3,4.1,3,5.4V16H93z"/></g></svg>