<?xml version="1.0" ?><svg id="Layer_1" style="enable-background:new 0 0 96 96;" version="1.1" viewBox="0 0 96 96" xml:space="preserve" xmlns="http://www.w3.org/2000/svg" xmlns:xlink="http://www.w3.org/1999/xlink"><style type="text/css">
	.st0{fill:#FFFFFF;}
</style><g><path d="M50,80.3l43-12.5V20H3v47.8l43,12.5C47,80.6,49,80.6,50,80.3z M66.6,50.5l-3.3-1.3c-2.6-1-5-2.9-5-6.3   c0-3.8,3.7-6.9,8.9-6.9c2.9,0,5.9,1.1,8,3.1l-2.9,3.3c-1.6-1.2-3.2-1.8-5.2-1.8c-2,0-3.2,0.8-3.2,2.1c0,1.4,1.6,1.9,3.8,2.7   l3.2,1.2c3,1.1,4.9,3,4.9,6.3c0,3.8-3.5,7.2-9.4,7.2c-3.3,0-6.7-1.1-9.2-3.3l3.2-3.6c1.8,1.4,4.1,2.4,6.2,2.4   c2.3,0,3.5-0.9,3.5-2.2C70.2,51.8,68.8,51.3,66.6,50.5z M31,60c-6,0-11-4.1-11-11.9C20,40.5,25.2,36,31.2,36c3,0,5.5,1.4,7.1,3   l-2.8,3.3c-1.2-1.1-2.5-1.8-4.2-1.8c-3.2,0-5.8,2.8-5.8,7.5c0,4.8,2.3,7.5,5.7,7.5c1.9,0,3.5-1,4.6-2.2l2.8,3.3   C36.7,58.8,34.1,60,31,60z M47.9,50.5l-3.1-1.3c-2.4-1-4.8-2.9-4.8-6.3c0-3.8,3.5-6.9,8.4-6.9c2.7,0,5.6,1.1,7.6,3.1l-2.7,3.3   c-1.6-1.2-3-1.8-4.9-1.8c-1.9,0-3,0.8-3,2.1c0,1.4,1.6,1.9,3.6,2.7l3.1,1.2c2.9,1.1,4.7,3,4.7,6.3c0,3.8-3.3,7.2-9,7.2   c-3.1,0-6.4-1.1-8.8-3.3l3.1-3.6c1.7,1.4,3.9,2.4,5.9,2.4c2.2,0,3.3-0.9,3.3-2.2C51.4,51.8,50,51.3,47.9,50.5z"/><path d="M93,16V5.4C93,4.1,91.9,3,90.6,3H50.4c-1.3,0-3.6,0-4.9,0H5.4C4.1,3,3,4.1,3,5.4V16H93z"/><path d="M51.1,84.2c-0.9,0.3-2,0.4-3.1,0.4c-1.1,0-2.2-0.1-3.1-0.4L3,72v6.6c0,1.3,1.1,2.7,2.4,3.1l40.3,10.7   c1.3,0.3,3.4,0.3,4.7,0l40.3-10.7c1.3-0.3,2.4-1.7,2.4-3.1V72L51.1,84.2z"/></g></svg>