<?xml version="1.0" ?><svg enable-background="new 0 0 64 64" version="1.1" viewBox="0 0 64 64" xml:space="preserve" xmlns="http://www.w3.org/2000/svg" xmlns:xlink="http://www.w3.org/1999/xlink"><g id="row_4"/><g id="row_3"><g id="nearby"><g><polygon fill="#7CB342" points="42,31 42,6 42,6 22,4 22,4 22,31    "/><path d="M22,4L7.8,4.9C6.8,5,6,5.8,6,6.9L5,31h17V4z" fill="#AED581"/><path d="M58,31l1-24.8c0-0.5-0.2-1.1-0.6-1.5c-0.4-0.5-1.1-0.7-1.7-0.6L42,6v25H58z" fill="#ECEFF1"/><path d="M58,31H42v26l0,0l14.8,0.9l0.1,0c0.5,0,1.1-0.2,1.4-0.6c0.4-0.4,0.6-0.9,0.6-1.5L58,31L58,31z" fill="#CFD8DC"/><polygon fill="#AED581" points="42,57 42,31 22,31 22,59    "/><path d="M5,31l1,24.2c0,1,0.8,1.8,1.7,1.9L22,59l0,0V31H5z" fill="#7CB342"/><polygon fill="#B0BEC5" points="25.9,51.4 26,45.4 22,45.3 22,51.8    "/><polygon fill="#78909C" points="30,31 32.2,28.3 32.2,26.8 31.1,26.8 31.2,25.8 34.1,25.9 34.2,21.5 40.4,20.8 40,11.7      34.5,10.7 32.5,10.7 32.2,12.3 29.8,11.6 29,15 27,15.1 26.1,21.1 26.9,21.7 26.6,22.9 23.5,20.5 22,20.4 22,31    "/><polygon fill="#B0BEC5" points="22,20.4 17.4,20.1 14.2,23.8 7.8,26.1 7.9,31 22,31    "/><polygon fill="#B0BEC5" points="22,31 22,44.4 22.7,42.1 26.1,42.2 26.2,36.7 29.5,36.8 29.6,31.4 30,31    "/><polygon fill="#78909C" points="7.9,31 8,36.3 13.4,38.8 10.5,45.6 11.9,53.1 20.5,54.5 21.9,51.8 22,51.8 22,45.3 21.7,45.3      22,44.4 22,31    "/><polygon fill="#4DD0E1" points="21.4,26.7 18.3,31 22,31 22,26.9    "/><polygon fill="#039BE5" points="16.4,33.6 10.7,36.8 5.2,36.8 5.4,41 13.4,41 17.7,37.8 20.6,39.7 22,39.2 22,31 18.3,31    "/><polygon fill="#4DD0E1" points="40.1,55.1 37.1,52.4 36.8,50 34.2,50 31.7,41.9 31.6,40.7 42,36 41,31 40.8,31 36.7,31      36.7,34.3 32.2,33.8 31.8,31 22,31 22,39.2 26.4,37.6 28.9,39.5 29.1,40.5 31.1,42.3 32.7,51.3 35.9,53.6 36.7,56.5 37.5,57.5      41.2,57.1    "/><path d="M31.8,31H22v-4.1l3.3,1.4l5.6-3.1L31.8,31z M36.7,30.2V31h4.1L36.7,30.2z" fill="#039BE5"/><g><path d="M17.5,45.3c-0.3-0.1-0.5,0.1-0.6,0.4c-0.1,0.3,0.1,0.5,0.4,0.6c1.5,0.3,3.1,0.6,4.7,0.7v-1      C20.5,45.8,19,45.6,17.5,45.3z" fill="#546E7A"/><path d="M32.4,45.3c-0.1-0.3-0.3-0.4-0.6-0.4c-3.2,0.9-6.5,1.2-9.8,0.9v1c0.7,0,1.3,0.1,2,0.1      c2.7,0,5.4-0.4,8.1-1.1C32.3,45.9,32.5,45.6,32.4,45.3z" fill="#7CB342"/></g></g><g><line fill="none" stroke="#757575" stroke-miterlimit="10" x1="50.5" x2="46" y1="55.1" y2="54.9"/><line fill="none" stroke="#757575" stroke-miterlimit="10" x1="46" x2="55.7" y1="52.9" y2="53.4"/><line fill="none" stroke="#757575" stroke-miterlimit="10" x1="46" x2="56.8" y1="50.8" y2="51.4"/><line fill="none" stroke="#757575" stroke-miterlimit="10" x1="46" x2="54.8" y1="46.8" y2="47.1"/><line fill="none" stroke="#757575" stroke-miterlimit="10" x1="46" x2="56.8" y1="44.8" y2="45.1"/><line fill="none" stroke="#757575" stroke-miterlimit="10" x1="46" x2="54" y1="40.7" y2="41"/><line fill="none" stroke="#757575" stroke-miterlimit="10" x1="46" x2="56.7" y1="36.7" y2="36.9"/><line fill="none" stroke="#757575" stroke-miterlimit="10" x1="49.8" x2="46" y1="32.7" y2="32.7"/></g><g><line fill="none" stroke="#BDBDBD" stroke-miterlimit="10" x1="56.7" x2="46" y1="5.9" y2="7.1"/><line fill="none" stroke="#BDBDBD" stroke-miterlimit="10" x1="56.7" x2="46" y1="10" y2="11"/><line fill="none" stroke="#BDBDBD" stroke-miterlimit="10" x1="46" x2="52.3" y1="13" y2="12.4"/><line fill="none" stroke="#BDBDBD" stroke-miterlimit="10" x1="56.7" x2="46" y1="16.2" y2="16.9"/><line fill="none" stroke="#BDBDBD" stroke-miterlimit="10" x1="46" x2="53.7" y1="18.9" y2="18.4"/><line fill="none" stroke="#BDBDBD" stroke-miterlimit="10" x1="56.7" x2="46" y1="22.4" y2="22.8"/><line fill="none" stroke="#BDBDBD" stroke-miterlimit="10" x1="46" x2="56.7" y1="26.7" y2="26.5"/><line fill="none" stroke="#BDBDBD" stroke-miterlimit="10" x1="56.7" x2="46" y1="30.6" y2="30.6"/></g><path d="M24,9C15.7,9,9,15.7,9,24c0,10.2,11.5,23,15,23s15-12.8,15-23C39,15.7,32.3,9,24,9z M24,32    c-4.4,0-8-3.6-8-8s3.6-8,8-8s8,3.6,8,8S28.4,32,24,32z" fill="#E53935"/></g></g><g id="row_2"/><g id="row_1"/></svg>