<?xml version="1.0" ?><svg id="Layer_1" style="enable-background:new 0 0 96 96;" version="1.1" viewBox="0 0 96 96" xml:space="preserve" xmlns="http://www.w3.org/2000/svg" xmlns:xlink="http://www.w3.org/1999/xlink"><style type="text/css">
	.st0{fill:#FFFFFF;}
</style><g><path d="M93,16V5.4C93,4.1,91.9,3,90.6,3H50.4c-1.3,0-3.6,0-4.9,0H5.4C4.1,3,3,4.1,3,5.4V16H93z"/><path d="M50,80.3l43-12.5V20H3v47.8l43,12.5C47,80.6,49,80.6,50,80.3z M68,36h4v14.7c0,0.8,0.1,1.1,0.4,1.1c0.2,0,0.1,0,0.3-0.1   l0.4,2.9c-0.4,0.2-0.9,0.3-1.7,0.3c-2.6,0-3.3-1.8-3.3-4.4V36z M46,41h3.3l0.3,2h0.1c1-1,2.2-1.9,3.8-1.9c1.8,0,2.9,0.8,3.5,2.3   c1.1-1.2,2.3-2.2,4-2.2c2.7,0,4,2,4,5.4V55h-4v-8c0-1.9-0.6-2.5-1.7-2.5c-0.6,0-1.3,0.4-2.3,1.3V55h-3v-8c0-1.9-0.6-2.5-1.7-2.5   c-0.6,0-1.3,0.4-2.3,1.3V55h-4V41z M35,55h-5v-8c0-1.9,0-2.5-1.1-2.5c-0.9,0-1.9,0.5-1.9,1.3V55h-4V36h4v4.6L26.7,43   c0.9-0.9,2.4-1.8,4.1-1.8c2.8,0,4.2,2,4.2,5.3V55z M41.6,55c-3.1,0-4.6-2.1-4.6-5.1V45h-1v-3.4l1.8-0.1l0.4-3.5H42v3h2v4h-2v4.8   c0,1.5,0.2,2.1,1.2,2.1c0.4,0,0.7-0.1,1-0.3l0.4,2.9C44,54.7,42.8,55,41.6,55z"/><path d="M51.1,84.2c-0.9,0.3-2,0.4-3.1,0.4c-1.1,0-2.2-0.1-3.1-0.4L3,72v6.6c0,1.3,1.1,2.7,2.4,3.1l40.3,10.7   c1.3,0.3,3.4,0.3,4.7,0l40.3-10.7c1.3-0.3,2.4-1.7,2.4-3.1V72L51.1,84.2z"/></g></svg>