<?xml version="1.0" ?><svg id="Layer_1" style="enable-background:new 0 0 96 96;" version="1.1" viewBox="0 0 96 96" xml:space="preserve" xmlns="http://www.w3.org/2000/svg" xmlns:xlink="http://www.w3.org/1999/xlink"><style type="text/css">
	.st0{fill:#FFFFFF;}
</style><path d="M93,78.6c0,1.3-1.1,2.7-2.4,3.1L50.4,92.4c-1.3,0.3-3.4,0.3-4.7,0L5.4,81.6C4.1,81.3,3,79.9,3,78.6V5.4C3,4.1,4.1,3,5.4,3  h40.1c1.3,0,3.6,0,4.9,0h40.1C91.9,3,93,4.1,93,5.4V78.6z"/><g><g><path class="st0" d="M41.4,36h6.7l7.7,24h-5.9l-1.5-5.7h-7.5L39.4,60h-5.6L41.4,36z M42,50.1h5.2l-0.6-2.2c-0.7-2.4-1.4-5.2-2-7.7    h-0.2c-0.6,2.5-1.2,5.3-1.9,7.7L42,50.1z"/><path class="st0" d="M57.2,42c0-1.5,1.1-2.5,2.5-2.5c1.5,0,2.5,1,2.5,2.5c0,1.5-1,2.5-2.5,2.5C58.3,44.5,57.2,43.5,57.2,42z     M57.2,46.1h5v14h-5V46.1z"/></g><g><rect class="st0" height="4" width="96" y="16"/></g><g><path class="st0" d="M48,84.6c-1.1,0-2.2-0.1-3.1-0.4L-0.6,70.9l1.1-3.8L46,80.3c1,0.3,3,0.3,4,0l45.4-13.3l1.1,3.8L51.1,84.2    C50.2,84.4,49.1,84.6,48,84.6z"/></g></g></svg>