<?xml version="1.0" ?><svg id="Layer_1" style="enable-background:new 0 0 96 96;" version="1.1" viewBox="0 0 96 96" xml:space="preserve" xmlns="http://www.w3.org/2000/svg" xmlns:xlink="http://www.w3.org/1999/xlink"><style type="text/css">
	.st0{fill:#FFFFFF;}
</style><g><path d="M93,16V5.4C93,4.1,91.9,3,90.6,3H50.4c-1.3,0-3.6,0-4.9,0H5.4C4.1,3,3,4.1,3,5.4V16H93z"/><path d="M50,80.3l43-12.5V20H3v47.8l43,12.5C47,80.6,49,80.6,50,80.3z M57.2,50.5L54,49.2c-2.5-1-5-2.9-5-6.3   c0-3.8,3.6-6.9,8.8-6.9c2.8,0,5.9,1.1,8,3.1l-2.8,3.3c-1.6-1.2-3.2-1.8-5.1-1.8c-1.9,0-3.2,0.8-3.2,2.1c0,1.4,1.6,1.9,3.8,2.7   l3.2,1.2c3,1.1,4.9,3,4.9,6.3c0,3.8-3.4,7.2-9.3,7.2c-3.2,0-6.7-1.1-9.2-3.3l3.2-3.6c1.8,1.4,4.1,2.4,6.1,2.4   c2.3,0,3.5-0.9,3.5-2.2C60.8,51.8,59.4,51.3,57.2,50.5z M45,51.7c0,4.6-2.3,8.3-7.7,8.3c-3.7,0-6.1-1.4-7.8-4.3l3.8-2.7   c0.9,1.6,2.3,2.3,3.6,2.3c2,0,3.2-1,3.2-4.1V36h5V51.7z"/><path d="M51.1,84.2c-0.9,0.3-2,0.4-3.1,0.4c-1.1,0-2.2-0.1-3.1-0.4L3,72v6.6c0,1.3,1.1,2.7,2.4,3.1l40.3,10.7   c1.3,0.3,3.4,0.3,4.7,0l40.3-10.7c1.3-0.3,2.4-1.7,2.4-3.1V72L51.1,84.2z"/></g></svg>