<?xml version="1.0" ?><svg id="Layer_1" style="enable-background:new 0 0 96 96;" version="1.1" viewBox="0 0 96 96" xml:space="preserve" xmlns="http://www.w3.org/2000/svg" xmlns:xlink="http://www.w3.org/1999/xlink"><style type="text/css">
	.st0{fill:#FFFFFF;}
</style><g><path d="M50,80.3l43-12.5V20H3v47.8l43,12.5C47,80.6,49,80.6,50,80.3z M61,36h7.6c4.9,0,8.9,2,8.9,7.8c0,5.6-4,8.2-8.8,8.2H66v8h-5   V36z M26.3,52H24v8h-6V36h8.2c4.9,0,8.9,2,8.9,7.8C35.1,49.4,31.1,52,26.3,52z M43,60h-6V36h6v9h7v-9h6v24h-6V50h-7V60z"/><path d="M25.9,40H24v8h2c2.8,0,4.1-1.7,4.1-4.2C30.1,41.3,28.6,40,25.9,40z"/><path d="M51.1,84.2c-0.9,0.3-2,0.4-3.1,0.4c-1.1,0-2.2-0.1-3.1-0.4L3,72v6.6c0,1.3,1.1,2.7,2.4,3.1l40.3,10.7   c1.3,0.3,3.4,0.3,4.7,0l40.3-10.7c1.3-0.3,2.4-1.7,2.4-3.1V72L51.1,84.2z"/><path d="M93,16V5.4C93,4.1,91.9,3,90.6,3H50.4c-1.3,0-3.6,0-4.9,0H5.4C4.1,3,3,4.1,3,5.4V16H93z"/><path d="M72.6,43.8c0-2.5-1.5-3.8-4.3-3.8H66v8h2.4C71.2,48,72.6,46.3,72.6,43.8z"/></g></svg>