<?xml version="1.0" ?><svg id="Layer_1" style="enable-background:new 0 0 96 96;" version="1.1" viewBox="0 0 96 96" xml:space="preserve" xmlns="http://www.w3.org/2000/svg" xmlns:xlink="http://www.w3.org/1999/xlink"><style type="text/css">
	.st0{fill:#FFFFFF;}
</style><g><path d="M93,16V5.4C93,4.1,91.9,3,90.6,3H50.4c-1.3,0-3.6,0-4.9,0H5.4C4.1,3,3,4.1,3,5.4V16H93z"/><path d="M50,80.3l43-12.5V20H3v47.8l43,12.5C47,80.6,49,80.6,50,80.3z M58,41.2l1,0v-0.9c0-2.9,1.4-5.3,4.8-5.3c1,0,2,0.3,2.6,0.5   l-0.6,3c-0.4-0.2-0.9-0.3-1.3-0.3c-0.9,0-1.5,0.6-1.5,2V41h4.2l0.4-4H70v4h3v3h-3v5.6c0,1.5,1,2.2,2,2.2c0.4,0,1-0.1,1.4-0.3l0.7,3   c-0.7,0.2-1.5,0.5-2.7,0.5c-3.1,0-4.3-2.1-4.3-5.3V44h-4v11h-4V44h-1V41.2z M56,55h-4V41h4V55z M54,35c1.2,0,2,0.8,2,2   c0,1.2-0.8,2-2,2c-1.2,0-2-0.8-2-2C52,35.8,52.8,35,54,35z M26.7,54.8c-1.6,0-3.4-0.7-4.7-1.8l1.6-2.5c1.1,0.9,2.1,1.4,3.2,1.4   c1.1,0,1.6-0.4,1.6-1.1c0-0.9-1.2-1.3-2.5-1.8c-1.5-0.6-3.2-1.7-3.2-3.9c0-2.5,1.8-4.1,4.7-4.1c1.9,0,3.3,0.8,4.3,1.7L30,45   c-0.9-0.7-1.7-1.1-2.6-1.1c-0.9,0-1.4,0.4-1.4,1c0,0.9,1.1,1.2,2.4,1.7c1.6,0.6,3.3,1.5,3.3,4C31.7,53,30,54.8,26.7,54.8z    M42.4,48.8c-0.3-1.3-0.5-2.8-0.7-3.8h-0.1c-0.2,1-0.4,2.5-0.6,3.8L39.8,55h-4.3l-3.2-14h3.7l1.2,6.2c0.2,1.4,0.4,2.8,0.6,3.8H38   c0.2-1,0.4-2.5,0.7-3.8l1.4-6.2h3.3l1.4,6.2c0.3,1.4,0.5,2.8,0.8,3.8h0.1c0.2-1,0.4-2.5,0.6-3.8l1.2-6.2H51L48,55h-4.4L42.4,48.8z"/><path d="M51.1,84.2c-0.9,0.3-2,0.4-3.1,0.4c-1.1,0-2.2-0.1-3.1-0.4L3,72v6.6c0,1.3,1.1,2.7,2.4,3.1l40.3,10.7   c1.3,0.3,3.4,0.3,4.7,0l40.3-10.7c1.3-0.3,2.4-1.7,2.4-3.1V72L51.1,84.2z"/></g></svg>