<?xml version="1.0" ?><svg id="Layer_1" style="enable-background:new 0 0 96 96;" version="1.1" viewBox="0 0 96 96" xml:space="preserve" xmlns="http://www.w3.org/2000/svg" xmlns:xlink="http://www.w3.org/1999/xlink"><style type="text/css">
	.st0{fill:#FFFFFF;}
</style><g><path d="M66.8,43.8c0-2.5-1.6-3.8-4.5-3.8H60v8h2.5C65.4,48,66.8,46.3,66.8,43.8z"/><path d="M50,80.3l43-12.5V20H3v47.8l43,12.5C47,80.6,49,80.6,50,80.3z M55,36h7.6c5.2,0,9.4,2,9.4,7.8c0,5.6-4.2,8.2-9.2,8.2H60v8   h-5V36z M39.2,49.3c-0.4-1.8-0.7-4.3-0.9-5.3h-0.1c-0.3,1-0.6,3.5-1,5.3L34.9,60h-6.6L24,36h5.5l1.6,11.3c0.3,2.5,0.6,4.7,0.9,7.7   h0.1c0.5-3,0.9-5.2,1.4-7.7L36.1,36h4.5l2.5,11.3c0.5,2.4,0.9,4.7,1.4,7.7h0.1c0.3-3,0.6-5.2,1-7.7L47.3,36h5.1l-4.2,24h-6.7   L39.2,49.3z"/><path d="M51.1,84.2c-0.9,0.3-2,0.4-3.1,0.4c-1.1,0-2.2-0.1-3.1-0.4L3,72v6.6c0,1.3,1.1,2.7,2.4,3.1l40.3,10.7   c1.3,0.3,3.4,0.3,4.7,0l40.3-10.7c1.3-0.3,2.4-1.7,2.4-3.1V72L51.1,84.2z"/><path d="M93,16V5.4C93,4.1,91.9,3,90.6,3H50.4c-1.3,0-3.6,0-4.9,0H5.4C4.1,3,3,4.1,3,5.4V16H93z"/></g></svg>