<?xml version="1.0" encoding="UTF-8"?>
<svg width="86.002" height="23.681" version="1.1"
  viewBox="0 0 36.513 5.176" xmlns="http://www.w3.org/2000/svg" xmlns:cc="http://creativecommons.org/ns#" xmlns:dc="http://purl.org/dc/elements/1.1/" xmlns:rdf="http://www.w3.org/1999/02/22-rdf-syntax-ns#">
 <title>Geogeeks logo</title>
 <g transform="translate(-60.144 -87.117)" fill="#0faa9b" stroke-width="0">
  <path d="m63.838 86.795-0.10583 0.49742c-0.07408-0.49742-0.51858-0.55033-0.86783-0.55033-1.8415 0-2.7199 2.1484-2.7199 3.4925 0 1.2594 0.68792 1.7039 1.4076 1.7039 0.61383 0 1.0372-0.32808 1.3441-0.70908l-0.20108 0.89958c-0.79375 0.24342-1.7251 0.68792-1.7251 1.5769 0 0.68791 0.53975 1.0266 1.1853 1.0266 0.6985 0 1.5875-0.28575 1.905-1.7992l0.15875-0.762c0.65616-0.17992 1.4605-0.58208 1.8732-1.9791h-0.4445c-0.29633 0.92075-0.68791 1.2806-1.3335 1.5134l1.0477-4.9107zm-0.64558 0.60325c0.32808 0 0.42333 0.26458 0.43392 0.39158l-0.46566 2.1907c-0.13758 0.62441-0.61383 0.93133-0.92075 0.93133-0.1905 0-0.52916-0.01058-0.52916-0.8255 0-0.93133 0.58208-2.6882 1.4817-2.6882zm-1.6404 6.1595c0-0.42333 0.49742-0.6985 1.0372-0.89958l-0.0635 0.30692c-0.13758 0.62442-0.39158 0.94191-0.61383 0.94191-0.23283 0-0.35983-0.20108-0.35983-0.34925z"/>
  <path d="m67.077 90.372c0-0.127 0.01058-0.27517 0.02117-0.42333 1.27-0.07408 2.4342-0.99483 2.4342-2.1907 0-0.52916-0.22225-1.016-1.1642-1.016-2.1696 0-2.8575 2.5188-2.8575 3.7253 0 1.1959 0.65616 1.6827 1.651 1.6827 1.4076 0 2.3072-0.98425 2.9104-1.9579h-0.35983c-0.52916 0.60325-1.0372 1.0689-1.8732 1.0689-0.508 0-0.762-0.16933-0.762-0.889zm1.6404-2.6352c0 0.85725-0.70908 1.651-1.5346 1.7039 0.22225-1.0372 0.74083-2.1378 1.27-2.1378 0.20108 0 0.26458 0.16933 0.26458 0.43392z"/>
  <path d="m72.464 86.742c-2.1802 0-2.8998 2.5188-2.8998 3.7359 0 1.2065 0.70908 1.6722 1.6933 1.6722 1.3017 0 2.3707-1.2382 2.54-3.2067 0.762-0.127 1.4605-0.4445 1.8627-0.87841l-0.09525-0.28575c-0.45508 0.3175-1.143 0.635-1.6298 0.635-0.03175 0-0.07408 0-0.11642-0.01058-0.01058-1.1007-0.45508-1.6616-1.3547-1.6616zm-0.78316 4.4132c-0.40217 0-0.53975-0.15875-0.53975-0.85725 0-1.0372 0.65616-2.921 1.4076-2.921 0.26458 0 0.381 0.15875 0.40217 0.59266-0.1905 0.07408-0.32808 0.26458-0.32808 0.56091 0 0.21167 0.0635 0.39158 0.28575 0.4445-0.15875 1.2488-0.70908 2.1802-1.2277 2.1802z"/>
  <path d="m77.914 86.795-0.10583 0.49742c-0.07408-0.49742-0.51858-0.55033-0.86783-0.55033-1.8415 0-2.7199 2.1484-2.7199 3.4925 0 1.2594 0.68791 1.7039 1.4076 1.7039 0.61383 0 1.0372-0.32808 1.3441-0.70908l-0.20108 0.89958c-0.79375 0.24342-1.7251 0.68792-1.7251 1.5769 0 0.68791 0.53975 1.0266 1.1853 1.0266 0.6985 0 1.5875-0.28575 1.905-1.7992l0.15875-0.762c0.65616-0.17992 1.4605-0.58208 1.8732-1.9791h-0.4445c-0.29633 0.92075-0.68792 1.2806-1.3335 1.5134l1.0477-4.9107zm-0.64558 0.60325c0.32808 0 0.42333 0.26458 0.43392 0.39158l-0.46567 2.1907c-0.13758 0.62441-0.61383 0.93133-0.92075 0.93133-0.1905 0-0.52916-0.01058-0.52916-0.8255 0-0.93133 0.58208-2.6882 1.4817-2.6882zm-1.6404 6.1595c0-0.42333 0.49742-0.6985 1.0372-0.89958l-0.0635 0.30692c-0.13758 0.62442-0.39158 0.94191-0.61383 0.94191-0.23283 0-0.35983-0.20108-0.35983-0.34925z"/>
  <path d="m81.153 90.372c0-0.127 0.01058-0.27517 0.02117-0.42333 1.27-0.07408 2.4342-0.99483 2.4342-2.1907 0-0.52916-0.22225-1.016-1.1642-1.016-2.1696 0-2.8575 2.5188-2.8575 3.7253 0 1.1959 0.65616 1.6827 1.651 1.6827 1.4076 0 2.3072-0.98425 2.9104-1.9579h-0.35983c-0.52916 0.60325-1.0372 1.0689-1.8732 1.0689-0.508 0-0.762-0.16933-0.762-0.889zm1.6404-2.6352c0 0.85725-0.70908 1.651-1.5346 1.7039 0.22225-1.0372 0.74083-2.1378 1.27-2.1378 0.20108 0 0.26458 0.16933 0.26458 0.43392z"/>
  <path d="m85.217 90.372c0-0.127 0.01058-0.27517 0.02117-0.42333 1.27-0.07408 2.4342-0.99483 2.4342-2.1907 0-0.52916-0.22225-1.016-1.1642-1.016-2.1696 0-2.8575 2.5188-2.8575 3.7253 0 1.1959 0.65616 1.6827 1.651 1.6827 1.4076 0 2.3072-0.98425 2.9104-1.9579h-0.35983c-0.52916 0.60325-1.0372 1.0689-1.8732 1.0689-0.508 0-0.762-0.16933-0.762-0.889zm1.6404-2.6352c0 0.85725-0.70908 1.651-1.5346 1.7039 0.22225-1.0372 0.74083-2.1378 1.27-2.1378 0.20108 0 0.26458 0.16933 0.26458 0.43392z"/>
  <path d="m91.799 86.795-2.0426 1.6087 0.79375-3.7253-1.5663 0.21167-1.5346 7.1966h1.524l0.55033-2.6141c0.29633-0.24342 0.53975-0.39158 0.78316-0.39158 0.27517 0 0.381 0.20108 0.381 0.508 0 0.4445-0.1905 0.86783-0.1905 1.3547 0 0.77258 0.46566 1.2065 1.3335 1.2065 0.48683 0 1.3441-0.17992 1.9473-1.9579h-0.4445c-0.23283 0.55033-0.42333 0.93133-0.889 0.93133-0.32808 0-0.41275-0.17992-0.41275-0.39158 0-0.41275 0.21167-0.81491 0.21167-1.27 0-0.67733-0.381-1.2382-1.1642-1.2382-0.11642 0-0.23283 0.02117-0.34925 0.04233l2.1167-1.4711z"/>
  <path d="m94.858 86.679c-0.32808 1.0372-0.70908 2.0849-1.3017 3.1327-0.29633 0.13758-0.56092 0.49742-0.56092 0.98425 0 0.64558 0.46567 1.3547 1.5452 1.3547 0.86783 0 2.1167-0.45508 2.1167-1.8309 0-0.6985-0.10583-1.1112-0.23283-3.8523zm-0.55033 3.5137c0-0.17992-0.10583-0.30692-0.24342-0.37042 0.34925-0.67733 0.64558-1.3123 0.85725-2.0002 0.10583 1.6298 0.20108 1.9579 0.20108 2.5082 0 0.74083-0.45508 0.98425-0.92075 0.98425s-0.64558-0.24342-0.64558-0.74083c0.05292 0.10583 0.17992 0.13758 0.28575 0.13758 0.27517 0 0.46567-0.26458 0.46567-0.51858z"/>
 </g>
</svg>
