<?xml version="1.0" encoding="UTF-8" standalone="no"?>
<!-- Created with Inkscape (http://www.inkscape.org/) -->

<svg
   width="1000"
   height="500"
   viewBox="0 0 264.58333 132.29167"
   version="1.1"
   id="svg5"
   inkscape:version="1.1.2 (0a00cf5339, 2022-02-04)"
   sodipodi:docname="meetup_humantix_banner.svg"
   inkscape:export-filename="geogeeks_banner.png"
   inkscape:export-xdpi="95.999992"
   inkscape:export-ydpi="95.999992"
   xmlns:inkscape="http://www.inkscape.org/namespaces/inkscape"
   xmlns:sodipodi="http://sodipodi.sourceforge.net/DTD/sodipodi-0.dtd"
   xmlns:xlink="http://www.w3.org/1999/xlink"
   xmlns="http://www.w3.org/2000/svg"
   xmlns:svg="http://www.w3.org/2000/svg">
  <sodipodi:namedview
     id="namedview7"
     pagecolor="#ffffff"
     bordercolor="#666666"
     borderopacity="1.0"
     inkscape:pageshadow="2"
     inkscape:pageopacity="0.0"
     inkscape:pagecheckerboard="0"
     inkscape:document-units="mm"
     showgrid="false"
     units="px"
     lock-margins="false"
     fit-margin-top="0"
     fit-margin-left="0"
     fit-margin-right="0"
     fit-margin-bottom="0"
     showguides="false"
     inkscape:zoom="1.633768"
     inkscape:cx="500.37703"
     inkscape:cy="249.11737"
     inkscape:window-width="2502"
     inkscape:window-height="1411"
     inkscape:window-x="1978"
     inkscape:window-y="0"
     inkscape:window-maximized="1"
     inkscape:current-layer="layer2"
     borderlayer="true" />
  <defs
     id="defs2" />
  <g
     inkscape:label="background-image"
     inkscape:groupmode="layer"
     id="layer1"
     transform="translate(1.1990292,-0.39440632)">
    <image
       width="264.59692"
       height="144.73453"
       preserveAspectRatio="none"
       xlink:href="../assets/img/eighty-mile-beach-small.png"
       id="image13110"
       x="-1.0844004"
       y="-6.1402655" />
  </g>
  <g
     inkscape:groupmode="layer"
     id="layer2"
     inkscape:label="text"
     style="display:inline">
    <rect
       style="fill:#19a89a;fill-opacity:1;stroke-width:0.264583"
       id="rect1380"
       width="54.90097"
       height="36.434742"
       x="24.564329"
       y="21.245031" />
    <text
       xml:space="preserve"
       style="font-style:normal;font-variant:normal;font-weight:normal;font-stretch:normal;font-size:10.5833px;line-height:1;font-family:'Ubuntu Condensed';-inkscape-font-specification:'Ubuntu Condensed, Normal';font-variant-ligatures:normal;font-variant-caps:normal;font-variant-numeric:normal;font-variant-east-asian:normal;fill:#ffffff;fill-opacity:1;stroke:none;stroke-width:0.264583"
       x="33.176579"
       y="37.298115"
       id="text3870"><tspan
         sodipodi:role="line"
         style="font-style:normal;font-variant:normal;font-weight:normal;font-stretch:normal;font-size:10.5833px;font-family:'Ubuntu Condensed';-inkscape-font-specification:'Ubuntu Condensed, Normal';font-variant-ligatures:normal;font-variant-caps:normal;font-variant-numeric:normal;font-variant-east-asian:normal;fill:#ffffff;fill-opacity:1;stroke-width:0.264583"
         x="33.176579"
         y="37.298115"
         id="tspan3872">Geogeeks</tspan><tspan
         sodipodi:role="line"
         style="font-style:normal;font-variant:normal;font-weight:normal;font-stretch:normal;font-size:10.5833px;font-family:'Ubuntu Condensed';-inkscape-font-specification:'Ubuntu Condensed, Normal';font-variant-ligatures:normal;font-variant-caps:normal;font-variant-numeric:normal;font-variant-east-asian:normal;fill:#ffffff;fill-opacity:1;stroke-width:0.264583"
         x="33.176579"
         y="47.881416"
         id="tspan10612">meetup</tspan></text>
    <rect
       style="fill:#ffffff;fill-opacity:0.651057;stroke-width:0.273563"
       id="rect6089"
       width="54.90097"
       height="10.942026"
       x="24.564329"
       y="57.679771" />
    <g
       id="g9657"
       transform="matrix(0.59262565,0,0,0.59262565,23.540817,28.416121)">
      <g
         style="fill:#17a699;fill-opacity:1"
         id="g6680"
         transform="matrix(0.35277777,0,0,0.35277777,-165.56696,-99.758052)">
        <g
           id="use6678"
           transform="translate(526.09521,459.0387)">
          <path
             style="stroke:none"
             d="m 7.953125,11.234375 c -1.4375,0 -2.636719,-0.375 -3.59375,-1.125 -0.960937,-0.75 -1.4375,-1.828125 -1.4375,-3.234375 0,-1.710938 0.6875,-3.078125 2.0625,-4.109375 C 6.367188,1.734375 8.125,0.875 10.25,0.1875 l 0.53125,-2.390625 c -1.523438,1.648437 -3.320312,2.46875 -5.390625,2.46875 -1.710937,0 -3.132813,-0.582031 -4.265625,-1.75 -1.1328125,-1.164063 -1.703125,-2.992187 -1.703125,-5.484375 0,-2.21875 0.4375,-4.546875 1.3125,-6.984375 0.882813,-2.445313 2.203125,-4.515625 3.953125,-6.203125 1.757812,-1.695312 3.851562,-2.546875 6.28125,-2.546875 1.226562,0 2.140625,0.214844 2.734375,0.640625 0.601563,0.417969 0.90625,0.96875 0.90625,1.65625 v 0.265625 l 0.5,-2.328125 h 6.46875 L 17.125,-1.625 c 1.4375,-0.476562 2.585938,-1.195312 3.453125,-2.15625 0.875,-0.957031 1.613281,-2.378906 2.21875,-4.265625 h 1.875 c -0.804687,2.667969 -1.898437,4.625 -3.28125,5.875 -1.375,1.242187 -2.933594,2.0859375 -4.671875,2.53125 L 16.046875,3.59375 c -0.59375,2.90625 -1.625,4.90625 -3.09375,6 -1.46875,1.09375 -3.136719,1.640625 -5,1.640625 z M 8.3125,-4.09375 c 0.6875,0 1.390625,-0.3125 2.109375,-0.9375 0.726563,-0.632812 1.222656,-1.488281 1.484375,-2.5625 L 14.203125,-18.25 c 0,-0.363281 -0.152344,-0.734375 -0.453125,-1.109375 -0.292969,-0.375 -0.757812,-0.5625 -1.390625,-0.5625 -1.199219,0 -2.277344,0.699219 -3.234375,2.09375 -0.960938,1.398437 -1.710938,3.078125 -2.25,5.046875 -0.542969,1.960938 -0.8125,3.6875 -0.8125,5.1875 0,1.5 0.21875,2.460938 0.65625,2.875 0.4375,0.417969 0.96875,0.625 1.59375,0.625 z M 6.921875,7.734375 c 0.507813,0 1.003906,-0.34375 1.484375,-1.03125 0.476562,-0.6875 0.851562,-1.679687 1.125,-2.96875 l 0.265625,-1.3125 C 6.859375,3.503906 5.390625,4.78125 5.390625,6.25 c 0,0.382812 0.132813,0.726562 0.40625,1.03125 0.269531,0.300781 0.644531,0.453125 1.125,0.453125 z m 0,0"
             id="path9513" />
        </g>
      </g>
      <g
         style="fill:#17a699;fill-opacity:1"
         id="g6684"
         transform="matrix(0.35277777,0,0,0.35277777,-165.56696,-99.758052)">
        <g
           id="use6682"
           transform="translate(548.88281,459.0387)">
          <path
             style="stroke:none"
             d="m 6.421875,0.265625 c -2.210937,0 -3.929687,-0.570313 -5.15625,-1.71875 -1.2304688,-1.15625 -1.84375,-2.960937 -1.84375,-5.421875 0,-2.070312 0.402344,-4.347656 1.203125,-6.828125 0.8125,-2.488281 2.128906,-4.640625 3.953125,-6.453125 1.832031,-1.8125 4.15625,-2.71875 6.96875,-2.71875 3.300781,0 4.953125,1.4375 4.953125,4.3125 0,1.679688 -0.480469,3.21875 -1.4375,4.625 -0.960938,1.40625 -2.234375,2.539062 -3.828125,3.390625 -1.585937,0.855469 -3.277344,1.34375 -5.078125,1.46875 -0.0625,0.898437 -0.09375,1.496094 -0.09375,1.796875 0,1.46875 0.253906,2.46875 0.765625,3 C 7.335938,-3.757812 8.164062,-3.5 9.3125,-3.5 c 1.613281,0 2.992188,-0.375 4.140625,-1.125 1.15625,-0.75 2.425781,-1.890625 3.8125,-3.421875 h 1.53125 c -3.335937,5.542969 -7.460937,8.3125 -12.375,8.3125 z m 0.09375,-11.5 c 1.113281,-0.0625 2.171875,-0.453125 3.171875,-1.171875 1,-0.71875 1.804688,-1.628906 2.421875,-2.734375 0.613281,-1.113281 0.921875,-2.285156 0.921875,-3.515625 0,-1.226562 -0.375,-1.84375 -1.125,-1.84375 -1.074219,0 -2.132812,0.949219 -3.171875,2.84375 -1.03125,1.886719 -1.773437,4.027344 -2.21875,6.421875 z m 0,0"
             id="path9497" />
        </g>
      </g>
      <g
         style="fill:#17a699;fill-opacity:1"
         id="g6688"
         transform="matrix(0.35277777,0,0,0.35277777,-165.56696,-99.758052)">
        <g
           id="use6686"
           transform="translate(566.14203,459.0387)">
          <path
             style="stroke:none"
             d="M 6.5625,0.1875 C 4.34375,0.1875 2.585938,-0.378906 1.296875,-1.515625 0.015625,-2.660156 -0.625,-4.460938 -0.625,-6.921875 c 0,-2.039063 0.417969,-4.300781 1.25,-6.78125 0.84375,-2.488281 2.191406,-4.640625 4.046875,-6.453125 1.863281,-1.8125 4.203125,-2.71875 7.015625,-2.71875 3.832031,0 5.75,2.398438 5.75,7.1875 v 0.04687 c 0.09375,0.03125 0.257812,0.04687 0.5,0.04687 0.988281,0 2.125,-0.257812 3.40625,-0.78125 1.289062,-0.53125 2.460938,-1.171875 3.515625,-1.921875 l 0.40625,1.21875 c -0.875,0.929687 -2.011719,1.714844 -3.40625,2.359375 -1.386719,0.648438 -2.902344,1.105469 -4.546875,1.375 -0.242188,2.71875 -0.855469,5.101562 -1.84375,7.140625 -0.992188,2.042969 -2.265625,3.621094 -3.828125,4.734375 C 10.085938,-0.363281 8.394531,0.1875 6.5625,0.1875 Z m 1.796875,-4.046875 c 0.71875,0 1.4375,-0.410156 2.15625,-1.234375 0.71875,-0.832031 1.347656,-1.957031 1.890625,-3.375 0.539062,-1.425781 0.929688,-3.007812 1.171875,-4.75 -0.8125,-0.175781 -1.21875,-0.804688 -1.21875,-1.890625 0,-1.226563 0.460937,-2.035156 1.390625,-2.421875 -0.05469,-0.988281 -0.199219,-1.671875 -0.4375,-2.046875 -0.242188,-0.375 -0.664062,-0.5625 -1.265625,-0.5625 -0.992187,0 -1.949219,0.71875 -2.875,2.15625 -0.929687,1.4375 -1.679687,3.164063 -2.25,5.171875 C 6.347656,-10.800781 6.0625,-9.03125 6.0625,-7.5 c 0,1.4375 0.164062,2.40625 0.5,2.90625 0.332031,0.492188 0.929688,0.734375 1.796875,0.734375 z m 0,0"
             id="path9525" />
        </g>
      </g>
      <g
         style="fill:#17a699;fill-opacity:1"
         id="g6692"
         transform="matrix(0.35277777,0,0,0.35277777,-165.56696,-99.758052)">
        <g
           id="use6690"
           transform="translate(585.87329,459.0387)">
          <path
             style="stroke:none"
             d="m 7.953125,11.234375 c -1.4375,0 -2.636719,-0.375 -3.59375,-1.125 -0.960937,-0.75 -1.4375,-1.828125 -1.4375,-3.234375 0,-1.710938 0.6875,-3.078125 2.0625,-4.109375 C 6.367188,1.734375 8.125,0.875 10.25,0.1875 l 0.53125,-2.390625 c -1.523438,1.648437 -3.320312,2.46875 -5.390625,2.46875 -1.710937,0 -3.132813,-0.582031 -4.265625,-1.75 -1.1328125,-1.164063 -1.703125,-2.992187 -1.703125,-5.484375 0,-2.21875 0.4375,-4.546875 1.3125,-6.984375 0.882813,-2.445313 2.203125,-4.515625 3.953125,-6.203125 1.757812,-1.695312 3.851562,-2.546875 6.28125,-2.546875 1.226562,0 2.140625,0.214844 2.734375,0.640625 0.601563,0.417969 0.90625,0.96875 0.90625,1.65625 v 0.265625 l 0.5,-2.328125 h 6.46875 L 17.125,-1.625 c 1.4375,-0.476562 2.585938,-1.195312 3.453125,-2.15625 0.875,-0.957031 1.613281,-2.378906 2.21875,-4.265625 h 1.875 c -0.804687,2.667969 -1.898437,4.625 -3.28125,5.875 -1.375,1.242187 -2.933594,2.0859375 -4.671875,2.53125 L 16.046875,3.59375 c -0.59375,2.90625 -1.625,4.90625 -3.09375,6 -1.46875,1.09375 -3.136719,1.640625 -5,1.640625 z M 8.3125,-4.09375 c 0.6875,0 1.390625,-0.3125 2.109375,-0.9375 0.726563,-0.632812 1.222656,-1.488281 1.484375,-2.5625 L 14.203125,-18.25 c 0,-0.363281 -0.152344,-0.734375 -0.453125,-1.109375 -0.292969,-0.375 -0.757812,-0.5625 -1.390625,-0.5625 -1.199219,0 -2.277344,0.699219 -3.234375,2.09375 -0.960938,1.398437 -1.710938,3.078125 -2.25,5.046875 -0.542969,1.960938 -0.8125,3.6875 -0.8125,5.1875 0,1.5 0.21875,2.460938 0.65625,2.875 0.4375,0.417969 0.96875,0.625 1.59375,0.625 z M 6.921875,7.734375 c 0.507813,0 1.003906,-0.34375 1.484375,-1.03125 0.476562,-0.6875 0.851562,-1.679687 1.125,-2.96875 l 0.265625,-1.3125 C 6.859375,3.503906 5.390625,4.78125 5.390625,6.25 c 0,0.382812 0.132813,0.726562 0.40625,1.03125 0.269531,0.300781 0.644531,0.453125 1.125,0.453125 z m 0,0"
             id="path9517" />
        </g>
      </g>
      <g
         style="fill:#17a699;fill-opacity:1"
         id="g6696"
         transform="matrix(0.35277777,0,0,0.35277777,-165.56696,-99.758052)">
        <g
           id="use6694"
           transform="translate(608.66083,459.0387)">
          <path
             style="stroke:none"
             d="m 6.421875,0.265625 c -2.210937,0 -3.929687,-0.570313 -5.15625,-1.71875 -1.2304688,-1.15625 -1.84375,-2.960937 -1.84375,-5.421875 0,-2.070312 0.402344,-4.347656 1.203125,-6.828125 0.8125,-2.488281 2.128906,-4.640625 3.953125,-6.453125 1.832031,-1.8125 4.15625,-2.71875 6.96875,-2.71875 3.300781,0 4.953125,1.4375 4.953125,4.3125 0,1.679688 -0.480469,3.21875 -1.4375,4.625 -0.960938,1.40625 -2.234375,2.539062 -3.828125,3.390625 -1.585937,0.855469 -3.277344,1.34375 -5.078125,1.46875 -0.0625,0.898437 -0.09375,1.496094 -0.09375,1.796875 0,1.46875 0.253906,2.46875 0.765625,3 C 7.335938,-3.757812 8.164062,-3.5 9.3125,-3.5 c 1.613281,0 2.992188,-0.375 4.140625,-1.125 1.15625,-0.75 2.425781,-1.890625 3.8125,-3.421875 h 1.53125 c -3.335937,5.542969 -7.460937,8.3125 -12.375,8.3125 z m 0.09375,-11.5 c 1.113281,-0.0625 2.171875,-0.453125 3.171875,-1.171875 1,-0.71875 1.804688,-1.628906 2.421875,-2.734375 0.613281,-1.113281 0.921875,-2.285156 0.921875,-3.515625 0,-1.226562 -0.375,-1.84375 -1.125,-1.84375 -1.074219,0 -2.132812,0.949219 -3.171875,2.84375 -1.03125,1.886719 -1.773437,4.027344 -2.21875,6.421875 z m 0,0"
             id="path9501" />
        </g>
      </g>
      <g
         style="fill:#17a699;fill-opacity:1"
         id="g6700"
         transform="matrix(0.35277777,0,0,0.35277777,-165.56696,-99.758052)">
        <g
           id="use6698"
           transform="translate(625.92004,459.0387)">
          <path
             style="stroke:none"
             d="m 6.421875,0.265625 c -2.210937,0 -3.929687,-0.570313 -5.15625,-1.71875 -1.2304688,-1.15625 -1.84375,-2.960937 -1.84375,-5.421875 0,-2.070312 0.402344,-4.347656 1.203125,-6.828125 0.8125,-2.488281 2.128906,-4.640625 3.953125,-6.453125 1.832031,-1.8125 4.15625,-2.71875 6.96875,-2.71875 3.300781,0 4.953125,1.4375 4.953125,4.3125 0,1.679688 -0.480469,3.21875 -1.4375,4.625 -0.960938,1.40625 -2.234375,2.539062 -3.828125,3.390625 -1.585937,0.855469 -3.277344,1.34375 -5.078125,1.46875 -0.0625,0.898437 -0.09375,1.496094 -0.09375,1.796875 0,1.46875 0.253906,2.46875 0.765625,3 C 7.335938,-3.757812 8.164062,-3.5 9.3125,-3.5 c 1.613281,0 2.992188,-0.375 4.140625,-1.125 1.15625,-0.75 2.425781,-1.890625 3.8125,-3.421875 h 1.53125 c -3.335937,5.542969 -7.460937,8.3125 -12.375,8.3125 z m 0.09375,-11.5 c 1.113281,-0.0625 2.171875,-0.453125 3.171875,-1.171875 1,-0.71875 1.804688,-1.628906 2.421875,-2.734375 0.613281,-1.113281 0.921875,-2.285156 0.921875,-3.515625 0,-1.226562 -0.375,-1.84375 -1.125,-1.84375 -1.074219,0 -2.132812,0.949219 -3.171875,2.84375 -1.03125,1.886719 -1.773437,4.027344 -2.21875,6.421875 z m 0,0"
             id="path9505" />
        </g>
      </g>
      <g
         style="fill:#17a699;fill-opacity:1"
         id="g6704"
         transform="matrix(0.35277777,0,0,0.35277777,-165.56696,-99.758052)">
        <g
           id="use6702"
           transform="translate(643.17932,459.0387)">
          <path
             style="stroke:none"
             d="m 16.90625,0.265625 c -1.867188,0 -3.277344,-0.4375 -4.234375,-1.3125 -0.960937,-0.882813 -1.4375,-2.15625 -1.4375,-3.8125 0,-0.71875 0.09375,-1.492187 0.28125,-2.328125 L 11.875,-8.953125 c 0.113281,-0.5 0.171875,-1.050781 0.171875,-1.65625 0,-1.4375 -0.542969,-2.15625 -1.625,-2.15625 -0.480469,0 -0.980469,0.136719 -1.5,0.40625 -0.523437,0.273437 -1.125,0.6875 -1.8125,1.25 L 4.765625,0 h -6.46875 l 6.515625,-30.5625 6.65625,-0.90625 -3.375,15.828125 8.671875,-6.828125 h 4.453125 l -8.984375,6.234375 c 0.445313,-0.113281 0.9375,-0.171875 1.46875,-0.171875 1.625,0 2.851563,0.496094 3.6875,1.484375 0.84375,0.992187 1.265625,2.25 1.265625,3.78125 0,0.625 -0.0625,1.195313 -0.1875,1.703125 l -0.484375,2.25 C 17.828125,-6.65625 17.75,-6.175781 17.75,-5.75 c 0,1.105469 0.585938,1.65625 1.765625,1.65625 0.894531,0 1.609375,-0.320312 2.140625,-0.96875 0.539062,-0.644531 1.082031,-1.640625 1.625,-2.984375 h 1.890625 c -1.855469,5.542969 -4.609375,8.3125 -8.265625,8.3125 z m 0,0"
             id="path9509" />
        </g>
      </g>
      <g
         style="fill:#17a699;fill-opacity:1"
         id="g6708"
         transform="matrix(0.35277777,0,0,0.35277777,-165.56696,-99.758052)">
        <g
           id="use6706"
           transform="translate(666.4613,459.0387)">
          <path
             style="stroke:none"
             d="m 5.125,0.265625 c -1.4375,0 -2.652344,-0.2734375 -3.640625,-0.828125 -0.992187,-0.550781 -1.722656,-1.269531 -2.203125,-2.15625 -0.476562,-0.882812 -0.71875,-1.804688 -0.71875,-2.765625 0,-0.988281 0.234375,-1.847656 0.703125,-2.578125 0.460937,-0.738281 1.015625,-1.273438 1.671875,-1.609375 1.175781,-2.09375 2.195312,-4.207031 3.0625,-6.34375 0.863281,-2.144531 1.6875,-4.460937 2.46875,-6.953125 L 13.125,-23.875 c 0.144531,3.84375 0.398438,7.996094 0.765625,12.453125 0.144531,1.804687 0.21875,3.109375 0.21875,3.921875 0,0.6875 -0.05859,1.257812 -0.171875,1.703125 1.40625,-0.8125 2.484375,-1.5625 3.234375,-2.25 H 19.0625 c -1.917969,2.21875 -4.210938,4.09375 -6.875,5.625 C 11.3125,-1.492188 10.238281,-0.8125 8.96875,-0.375 7.695312,0.0507812 6.414062,0.265625 5.125,0.265625 Z M 3.6875,-3.28125 c 1.101562,0 2.03125,-0.328125 2.78125,-0.984375 0.75,-0.664063 1.125,-1.734375 1.125,-3.203125 0,-0.894531 -0.089844,-2.148438 -0.265625,-3.765625 -0.304687,-3.414063 -0.496094,-5.707031 -0.578125,-6.875 -0.71875,2.367187 -1.933594,5.195313 -3.640625,8.484375 0.6875,0.367188 1.03125,0.890625 1.03125,1.578125 0,0.574219 -0.1875,1.085937 -0.5625,1.53125 -0.375,0.449219 -0.851563,0.671875 -1.421875,0.671875 -0.625,0 -1.03125,-0.191406 -1.21875,-0.578125 0,1.074219 0.21875,1.867187 0.65625,2.375 0.4375,0.511719 1.132812,0.765625 2.09375,0.765625 z m 0,0"
             id="path9521" />
        </g>
      </g>
    </g>
  </g>
</svg>
